<svg width="45" height="44" viewBox="0 0 45 44" fill="none" xmlns="http://www.w3.org/2000/svg">
<path d="M11.8454 19.0516L11.8454 19.0517C12.9495 18.9923 14.0286 18.7182 15.0233 18.2477C14.8941 18.0044 14.7377 17.7535 14.5592 17.4672C14.4871 17.3516 14.4114 17.2303 14.3325 17.1013L14.3265 17.0916L14.3266 17.0916C13.444 15.612 12.3511 14.2685 11.0821 13.1033C10.3079 12.3991 9.45066 11.7994 8.53135 11.1563C8.44968 11.0992 8.36751 11.0417 8.28487 10.9838C8.00728 10.7918 7.75437 10.5663 7.53185 10.3126C7.20222 9.94203 7.02422 9.46084 7.03348 8.96484C7.04277 8.46666 7.24026 7.99046 7.58627 7.63193L7.58643 7.63176C7.91046 7.29617 8.34253 7.08572 8.80653 7.0375L8.9099 8.03214L8.80653 7.0375C9.27052 6.98927 9.73665 7.10637 10.1228 7.36816L10.1316 7.37417L10.1404 7.38037C10.3102 7.50088 10.4825 7.62222 10.6566 7.74478C11.5202 8.35273 12.4263 8.99061 13.2713 9.705C15.2338 11.3635 16.7957 13.32 18.0514 15.4925C19.0754 13.3756 19.2883 11.1322 18.8566 8.76188L18.8565 8.76153C18.4415 6.47865 17.2315 4.79587 15.2047 3.62241L11.8454 19.0516ZM11.8454 19.0516L11.832 19.0525M11.8454 19.0516L11.832 19.0525M11.832 19.0525C10.0088 19.175 8.31971 18.9643 6.74665 18.1814C5.20076 17.4121 4.10284 16.1873 3.29071 14.5942L3.29046 14.5937M11.832 19.0525L3.29046 14.5937M3.29046 14.5937C2.27311 12.6008 1.75019 10.433 1.42896 8.14106M3.29046 14.5937L1.42896 8.14106M9.83421 1.71028L9.83406 1.71025C7.1358 1.17242 4.37699 1.03787 1.55092 1.00046L9.83421 1.71028ZM9.83421 1.71028C11.7538 2.09261 13.5554 2.66927 15.2041 3.62206L9.83421 1.71028ZM1.42896 8.14106C1.25476 6.88849 1.13743 5.63918 1.08639 4.38124C1.08675 4.37144 1.08719 4.35797 1.08745 4.3448C1.0883 4.30078 1.08942 4.19371 1.06378 4.06647C1.05108 4.00345 1.03116 3.93177 1 3.85619V1.05269C1.00197 1.052 1.00396 1.05131 1.00596 1.05063C1.10284 1.01763 1.25902 0.996719 1.55058 1.00046L1.42896 8.14106Z" stroke="#254CAC" stroke-width="2"/>
<path d="M42.8221 4.95407V4.95405C40.6288 4.93778 38.4368 5.06242 36.2595 5.3272C33.8595 5.64025 31.5912 6.1515 29.5187 7.21644C27.9391 8.03688 26.6928 9.04202 25.96 10.5307C25.0423 12.411 24.8442 14.4118 25.1452 16.5322C25.2179 17.0278 25.3079 17.4971 25.4318 17.9408C25.5038 17.8447 25.5777 17.749 25.6508 17.6604L25.6577 17.652L25.6648 17.6437C26.9654 16.1343 28.4358 14.78 30.047 13.6077C31.2421 12.7372 32.5156 11.9797 33.851 11.345L33.8526 11.3442C34.3859 11.0919 34.9923 10.9998 35.5673 11.1764C36.1622 11.3591 36.6164 11.7997 36.8382 12.3895C37.01 12.8414 37.0159 13.3396 36.8241 13.7973C36.633 14.2535 36.2756 14.5999 35.8411 14.8151L35.8287 14.8212L35.8287 14.8211C34.8607 15.284 33.9238 15.8092 33.0238 16.3935C31.6006 17.3239 30.3075 18.4394 29.1784 19.7107C28.6792 20.2733 28.214 20.8647 27.785 21.4817C29.9331 22.9405 32.3684 23.3118 35.0435 22.8724L35.044 22.8723C37.167 22.5246 38.8708 21.516 40.0825 19.7342L40.0833 19.7329C41.1081 18.2309 41.7363 16.5378 42.1703 14.7055C42.901 11.616 43.0607 8.44642 43.0841 5.19378L42.8221 4.95407ZM42.8221 4.95407H42.8295M42.8221 4.95407H42.8295M42.8295 4.95407C42.9437 4.95407 43.0208 4.96265 43.0697 4.97176M42.8295 4.95407L43.0697 4.97176M43.0697 4.97176C43.0776 5.01768 43.0848 5.0891 43.0841 5.19362L43.0697 4.97176Z" stroke="#254CAC" stroke-width="2"/>
<mask id="path-3-outside-1" maskUnits="userSpaceOnUse" x="5.03906" y="5.02734" width="34" height="38" fill="black">
<rect fill="white" x="5.03906" y="5.02734" width="34" height="38"/>
<path d="M25.1409 19.8496C25.6712 19.4216 25.9922 18.8185 26.4343 18.3117C27.6846 16.8605 29.0983 15.5585 30.6472 14.4316C31.7923 13.5974 33.0126 12.8716 34.2922 12.2634C35.0129 11.9224 35.6749 12.1305 35.9148 12.7584C36.0899 13.217 35.9053 13.6885 35.4092 13.9342C34.4016 14.416 33.4264 14.9628 32.4897 15.5709C30.9918 16.55 29.6309 17.7239 28.4426 19.0618C27.7034 19.895 27.0348 20.7881 26.4437 21.7321C25.6207 22.8973 25.0045 24.1683 24.4613 25.477C23.0233 28.9409 22.3378 32.5694 22.1097 36.2943C22.0592 37.1397 22.0533 37.9851 22.0309 38.8305C22.0133 39.5066 21.7041 39.917 21.1773 39.9922C21.0504 40.0172 20.9197 40.0158 20.7934 39.9881C20.6671 39.9603 20.5478 39.9068 20.4431 39.8309C20.3384 39.755 20.2504 39.6583 20.1848 39.5469C20.1191 39.4354 20.0772 39.3116 20.0615 39.1833C20.0301 38.9999 20.014 38.8143 20.0133 38.6283C20.0223 35.3285 19.7821 32.0328 19.2949 28.7692C18.7857 25.4876 17.9462 22.3023 16.6094 19.2453C16.5259 19.0548 16.4706 18.8373 16.2872 18.6997C16.0685 17.9154 15.6029 17.2558 15.1913 16.5715C14.2581 15.011 13.1032 13.5942 11.7627 12.3657C10.8644 11.5426 9.85675 10.8607 8.86203 10.1634C8.64989 10.017 8.45676 9.8448 8.28706 9.65077C8.12319 9.46778 8.03465 9.22955 8.03923 8.98395C8.04381 8.73835 8.14118 8.50358 8.31176 8.32682C8.47219 8.16067 8.68611 8.05648 8.91584 8.0326C9.14557 8.00872 9.37634 8.0667 9.56751 8.19631C10.6046 8.93236 11.6581 9.64607 12.6316 10.4691C14.8174 12.3163 16.4906 14.5609 17.7922 17.0959C17.851 17.2135 17.9192 17.3181 17.9839 17.4287C18.9316 19.4168 19.6932 21.4884 20.259 23.6169C20.6365 25.042 20.9386 26.4823 21.1844 27.9368C21.2102 28.0896 21.1244 33.0811 21.1773 33.3374C21.5232 31.8617 19.6734 29.3368 22.7376 24.1918C23.3405 22.8305 24.0671 21.5274 24.9081 20.2988C25.0045 20.1589 25.1468 20.0413 25.1409 19.8496Z"/>
</mask>
<path d="M25.1409 19.8496C25.6712 19.4216 25.9922 18.8185 26.4343 18.3117C27.6846 16.8605 29.0983 15.5585 30.6472 14.4316C31.7923 13.5974 33.0126 12.8716 34.2922 12.2634C35.0129 11.9224 35.6749 12.1305 35.9148 12.7584C36.0899 13.217 35.9053 13.6885 35.4092 13.9342C34.4016 14.416 33.4264 14.9628 32.4897 15.5709C30.9918 16.55 29.6309 17.7239 28.4426 19.0618C27.7034 19.895 27.0348 20.7881 26.4437 21.7321C25.6207 22.8973 25.0045 24.1683 24.4613 25.477C23.0233 28.9409 22.3378 32.5694 22.1097 36.2943C22.0592 37.1397 22.0533 37.9851 22.0309 38.8305C22.0133 39.5066 21.7041 39.917 21.1773 39.9922C21.0504 40.0172 20.9197 40.0158 20.7934 39.9881C20.6671 39.9603 20.5478 39.9068 20.4431 39.8309C20.3384 39.755 20.2504 39.6583 20.1848 39.5469C20.1191 39.4354 20.0772 39.3116 20.0615 39.1833C20.0301 38.9999 20.014 38.8143 20.0133 38.6283C20.0223 35.3285 19.7821 32.0328 19.2949 28.7692C18.7857 25.4876 17.9462 22.3023 16.6094 19.2453C16.5259 19.0548 16.4706 18.8373 16.2872 18.6997C16.0685 17.9154 15.6029 17.2558 15.1913 16.5715C14.2581 15.011 13.1032 13.5942 11.7627 12.3657C10.8644 11.5426 9.85675 10.8607 8.86203 10.1634C8.64989 10.017 8.45676 9.8448 8.28706 9.65077C8.12319 9.46778 8.03465 9.22955 8.03923 8.98395C8.04381 8.73835 8.14118 8.50358 8.31176 8.32682C8.47219 8.16067 8.68611 8.05648 8.91584 8.0326C9.14557 8.00872 9.37634 8.0667 9.56751 8.19631C10.6046 8.93236 11.6581 9.64607 12.6316 10.4691C14.8174 12.3163 16.4906 14.5609 17.7922 17.0959C17.851 17.2135 17.9192 17.3181 17.9839 17.4287C18.9316 19.4168 19.6932 21.4884 20.259 23.6169C20.6365 25.042 20.9386 26.4823 21.1844 27.9368C21.2102 28.0896 21.1244 33.0811 21.1773 33.3374C21.5232 31.8617 19.6734 29.3368 22.7376 24.1918C23.3405 22.8305 24.0671 21.5274 24.9081 20.2988C25.0045 20.1589 25.1468 20.0413 25.1409 19.8496Z" fill="#254CAC"/>
<path d="M25.1409 19.8496L23.2568 17.5151L22.0966 18.4515L22.1423 19.9416L25.1409 19.8496ZM26.4343 18.3117L28.695 20.2839L28.701 20.2769L28.7071 20.2699L26.4343 18.3117ZM30.6472 14.4316L32.4122 16.8574L32.4135 16.8565L30.6472 14.4316ZM34.2922 12.2634L33.0092 9.55154L33.0043 9.55388L34.2922 12.2634ZM35.9148 12.7584L33.1123 13.829L33.1123 13.8291L35.9148 12.7584ZM35.4092 13.9342L36.7034 16.6406L36.7221 16.6317L36.7406 16.6226L35.4092 13.9342ZM32.4897 15.5709L30.856 13.0547L30.8482 13.0598L32.4897 15.5709ZM28.4426 19.0618L26.1995 17.0697L26.1985 17.0708L28.4426 19.0618ZM26.4437 21.7321L28.8941 23.4629L28.9421 23.3948L28.9864 23.3242L26.4437 21.7321ZM24.4613 25.477L27.2321 26.6272L27.2321 26.6271L24.4613 25.477ZM22.1097 36.2943L19.1153 36.111L19.1151 36.1152L22.1097 36.2943ZM22.0309 38.8305L19.032 38.7513L19.032 38.7523L22.0309 38.8305ZM21.1773 39.9922L20.7531 37.0224L20.6744 37.0336L20.5965 37.049L21.1773 39.9922ZM20.0615 39.1833L23.0394 38.82L23.0307 38.7485L23.0185 38.6774L20.0615 39.1833ZM20.0133 38.6283L17.0133 38.6201L17.0133 38.63L17.0133 38.6399L20.0133 38.6283ZM19.2949 28.7692L22.262 28.3263L22.2607 28.3178L22.2594 28.3093L19.2949 28.7692ZM16.6094 19.2453L19.358 18.0433L19.357 18.041L16.6094 19.2453ZM16.2872 18.6997L13.3974 19.5055L13.6714 20.4878L14.4872 21.0997L16.2872 18.6997ZM15.1913 16.5715L12.6166 18.1112L12.6204 18.1176L15.1913 16.5715ZM11.7627 12.3657L13.7897 10.1541L13.7894 10.1537L11.7627 12.3657ZM8.86203 10.1634L10.584 7.70681L10.5751 7.7006L10.5662 7.69445L8.86203 10.1634ZM8.28706 9.65077L10.5452 7.67576L10.5337 7.66252L10.5219 7.64942L8.28706 9.65077ZM8.31176 8.32682L6.15357 6.24302L6.15308 6.24353L8.31176 8.32682ZM9.56751 8.19631L11.3039 5.74988L11.2777 5.73127L11.251 5.71323L9.56751 8.19631ZM12.6316 10.4691L10.6948 12.7601L10.6952 12.7605L12.6316 10.4691ZM17.7922 17.0959L20.4755 15.7543L20.4683 15.7399L20.461 15.7256L17.7922 17.0959ZM17.9839 17.4287L20.6919 16.1377L20.6373 16.0232L20.5732 15.9136L17.9839 17.4287ZM20.259 23.6169L23.159 22.8488L23.1583 22.8462L20.259 23.6169ZM21.1844 27.9368L18.2263 28.4365L18.2264 28.4373L21.1844 27.9368ZM21.1773 33.3374L18.2393 33.9439L24.0981 34.0221L21.1773 33.3374ZM22.7376 24.1918L25.3151 25.7269L25.4075 25.5718L25.4806 25.4067L22.7376 24.1918ZM24.9081 20.2988L22.4378 18.5965L22.4326 18.6041L24.9081 20.2988ZM27.0251 22.1841C27.5842 21.7329 27.9752 21.2359 28.2161 20.9163C28.5241 20.5078 28.5671 20.4304 28.695 20.2839L24.1737 16.3395C23.9909 16.549 23.8363 16.7504 23.7175 16.9093C23.6584 16.9884 23.6004 17.0675 23.5537 17.1309C23.504 17.1986 23.4637 17.2531 23.4253 17.3041C23.2626 17.5198 23.2279 17.5384 23.2568 17.5151L27.0251 22.1841ZM28.7071 20.2699C29.8067 18.9936 31.05 17.8486 32.4122 16.8574L28.8822 12.0057C27.1466 13.2685 25.5626 14.7274 24.1616 16.3535L28.7071 20.2699ZM32.4135 16.8565C33.4083 16.1318 34.4684 15.5013 35.58 14.9729L33.0043 9.55388C31.5568 10.2419 30.1764 11.063 28.8809 12.0067L32.4135 16.8565ZM35.5751 14.9752C35.4186 15.0493 34.9847 15.1944 34.4013 15.0149C33.7569 14.8165 33.3036 14.3298 33.1123 13.829L38.7172 11.6878C38.286 10.5591 37.3819 9.65443 36.1663 9.2803C35.0117 8.92497 33.8865 9.13654 33.0092 9.55155L35.5751 14.9752ZM33.1123 13.8291C32.9437 13.3878 32.9152 12.8196 33.1468 12.2668C33.3751 11.7219 33.7666 11.3999 34.0777 11.2458L36.7406 16.6226C37.5479 16.2227 38.2798 15.5422 38.6807 14.5854C39.0848 13.6208 39.061 12.5876 38.7172 11.6877L33.1123 13.8291ZM34.1149 11.2278C32.9902 11.7656 31.9017 12.3759 30.8561 13.0547L34.1233 18.0871C34.9511 17.5497 35.813 17.0665 36.7034 16.6406L34.1149 11.2278ZM30.8482 13.0598C29.1277 14.1844 27.5645 15.5329 26.1995 17.0697L30.6856 21.054C31.6973 19.915 32.8559 18.9156 34.1311 18.082L30.8482 13.0598ZM26.1985 17.0708C25.3489 18.0284 24.5804 19.055 23.9011 20.1399L28.9864 23.3242C29.4891 22.5213 30.0579 21.7615 30.6866 21.0529L26.1985 17.0708ZM23.9934 20.0013C22.9886 21.4237 22.2735 22.9224 21.6905 24.3269L27.2321 26.6271C27.7355 25.4143 28.2527 24.3709 28.8941 23.4629L23.9934 20.0013ZM21.6906 24.3268C20.0955 28.1691 19.3585 32.1398 19.1153 36.111L25.1041 36.4777C25.3171 32.999 25.9512 29.7127 27.2321 26.6272L21.6906 24.3268ZM19.1151 36.1152C19.0606 37.0269 19.0523 37.9838 19.032 38.7513L25.0299 38.9098C25.0543 37.9864 25.0578 37.2525 25.1044 36.4734L19.1151 36.1152ZM19.032 38.7523C19.0339 38.6765 19.0585 38.2916 19.3832 37.8526C19.7522 37.3537 20.286 37.0891 20.7531 37.0224L21.6016 42.9621C22.5954 42.8201 23.5472 42.3126 24.2069 41.4208C24.8223 40.5888 25.0103 39.6606 25.0299 38.9088L19.032 38.7523ZM20.5965 37.049C20.8744 36.9941 21.1606 36.9972 21.437 37.058L20.1498 42.9182C20.6789 43.0345 21.2264 43.0404 21.7581 42.9354L20.5965 37.049ZM21.437 37.058C21.7136 37.1187 21.9747 37.2358 22.204 37.4021L18.6822 42.2598C19.121 42.5779 19.6206 42.802 20.1498 42.9182L21.437 37.058ZM22.204 37.4021C22.4332 37.5682 22.6257 37.7799 22.7695 38.024L17.6001 41.0698C17.8752 41.5367 18.2436 41.9418 18.6822 42.2598L22.204 37.4021ZM22.7695 38.024C22.9132 38.2679 23.0051 38.5389 23.0394 38.82L17.0836 39.5465C17.1492 40.0844 17.325 40.6029 17.6001 41.0698L22.7695 38.024ZM23.0185 38.6774C23.0151 38.6574 23.0133 38.6371 23.0133 38.6167L17.0133 38.6399C17.0147 38.9915 17.0451 39.3424 17.1044 39.6891L23.0185 38.6774ZM23.0133 38.6364C23.0227 35.1857 22.7715 31.7392 22.262 28.3263L16.3278 29.2122C16.7927 32.3265 17.0219 35.4714 17.0133 38.6201L23.0133 38.6364ZM22.2594 28.3093C21.7187 24.8243 20.8178 21.3814 19.358 18.0433L13.8607 20.4473C15.0747 23.2233 15.8528 26.1508 16.3303 29.2291L22.2594 28.3093ZM19.357 18.041C19.3614 18.0509 19.3719 18.0767 19.334 17.9822C19.3091 17.9202 19.2529 17.7805 19.1748 17.6226C19.0115 17.2925 18.6921 16.7534 18.0872 16.2997L14.4872 21.0997C14.0657 20.7836 13.8656 20.4221 13.7967 20.2827C13.7658 20.2202 13.7505 20.1792 13.7652 20.2159C13.7669 20.22 13.8156 20.3444 13.8617 20.4495L19.357 18.041ZM19.1769 17.8939C18.8164 16.6011 18.0145 15.4448 17.7623 15.0254L12.6204 18.1176C13.1913 19.0669 13.3206 19.2298 13.3974 19.5055L19.1769 17.8939ZM17.7661 15.0318C16.6838 13.2219 15.3443 11.5789 13.7897 10.1541L9.73573 14.5773C10.8621 15.6096 11.8325 16.8 12.6166 18.1112L17.7661 15.0318ZM13.7894 10.1537C12.7121 9.16669 11.5098 8.3558 10.584 7.70681L7.14008 12.62C8.20366 13.3655 9.01675 13.9186 9.73607 14.5776L13.7894 10.1537ZM10.5662 7.69445C10.5584 7.6891 10.5514 7.68282 10.5452 7.67576L6.0289 11.6258C6.36212 12.0068 6.74134 12.3449 7.15787 12.6324L10.5662 7.69445ZM10.5219 7.64942C10.8636 8.03101 11.0483 8.52778 11.0387 9.03989L5.03975 8.92801C5.02104 9.93132 5.38274 10.9046 6.05221 11.6521L10.5219 7.64942ZM11.0387 9.03989C11.0292 9.55201 10.8261 10.0415 10.4704 10.4101L6.15308 6.24353C5.45622 6.96561 5.05847 7.92468 5.03975 8.92801L11.0387 9.03989ZM10.4699 10.4106C10.1396 10.7528 9.69903 10.9674 9.22597 11.0165L8.60571 5.04867C7.6732 5.14559 6.8048 5.56855 6.15357 6.24302L10.4699 10.4106ZM9.22597 11.0165C8.75287 11.0657 8.27762 10.9463 7.88397 10.6794L11.251 5.71323C10.4751 5.18711 9.53826 4.95175 8.60571 5.04867L9.22597 11.0165ZM7.83115 10.6427C8.94333 11.4321 9.84669 12.0431 10.6948 12.7601L14.5685 8.17813C13.4695 7.24901 12.2658 6.4326 11.3039 5.74988L7.83115 10.6427ZM10.6952 12.7605C12.5324 14.3131 13.973 16.2256 15.1234 18.4662L20.461 15.7256C19.0082 12.8962 17.1025 10.3195 14.568 8.17775L10.6952 12.7605ZM15.1089 18.4376C15.1852 18.5901 15.2586 18.7164 15.3067 18.7972C15.3882 18.9345 15.3548 18.8757 15.3945 18.9437L20.5732 15.9136C20.5461 15.8673 20.5208 15.8252 20.5035 15.7967C20.4834 15.7634 20.4745 15.7486 20.465 15.7327C20.4481 15.7041 20.458 15.7193 20.4755 15.7543L15.1089 18.4376ZM15.2758 18.7196C16.1439 20.5406 16.8415 22.438 17.3597 24.3876L23.1583 22.8462C22.545 20.5387 21.7193 18.293 20.6919 16.1377L15.2758 18.7196ZM17.359 24.385C17.7099 25.7097 17.9936 27.0594 18.2263 28.4365L24.1425 27.437C23.8837 25.9052 23.563 24.3742 23.159 22.8488L17.359 24.385ZM18.2264 28.4373C18.2027 28.2968 18.195 28.1867 18.1938 28.1699C18.191 28.1321 18.1897 28.1041 18.1892 28.0936C18.1883 28.0715 18.1882 28.0617 18.1885 28.0734C18.1888 28.0939 18.1892 28.1363 18.1893 28.2068C18.1895 28.3445 18.1886 28.542 18.1868 28.7873C18.1833 29.2777 18.1767 29.9153 18.1708 30.5715C18.165 31.2208 18.1599 31.8851 18.1597 32.4057C18.1596 32.6642 18.1607 32.9016 18.1639 33.0895C18.1655 33.1815 18.1679 33.2801 18.172 33.3713C18.174 33.416 18.1772 33.4773 18.1828 33.5448C18.1855 33.5782 18.1982 33.7452 18.2393 33.9439L24.1154 32.731C24.1694 32.9926 24.1708 33.2096 24.1659 33.1011C24.1655 33.091 24.1642 33.0559 24.1631 32.9866C24.1607 32.8519 24.1596 32.656 24.1597 32.4081C24.1599 31.916 24.1648 31.2748 24.1706 30.6251C24.1763 29.9823 24.1831 29.3273 24.1867 28.8308C24.1885 28.5827 24.1896 28.3631 24.1893 28.1976C24.1892 28.1165 24.1887 28.0357 24.1875 27.9661C24.1869 27.9328 24.1859 27.8863 24.1837 27.8364C24.1827 27.8119 24.1808 27.7722 24.1772 27.7249C24.1753 27.6987 24.1669 27.5815 24.1423 27.4362L18.2264 28.4373ZM24.0981 34.0221C24.3365 33.0053 24.1665 31.9974 24.1044 31.5743C24.0184 30.9873 23.9498 30.5745 23.9372 30.0662C23.9156 29.1938 24.0616 27.8317 25.3151 25.7269L20.1601 22.6568C18.3495 25.697 17.8883 28.1698 17.939 30.215C17.9626 31.1655 18.1001 31.9822 18.1679 32.4444C18.2596 33.0706 18.1911 32.9317 18.2565 32.6528L24.0981 34.0221ZM25.4806 25.4067C26.0092 24.2131 26.6462 23.0706 27.3836 21.9935L22.4326 18.6041C21.4879 19.9841 20.6718 21.4479 19.9946 22.977L25.4806 25.4067ZM27.3784 22.001C27.3317 22.0688 27.2867 22.1233 27.3337 22.0642C27.3545 22.038 27.4592 21.9087 27.5646 21.7493C27.805 21.3861 28.1683 20.6972 28.1395 19.7576L22.1423 19.9416C22.1194 19.1937 22.4146 18.6594 22.5612 18.4379C22.6197 18.3494 22.6711 18.2876 22.6383 18.3289C22.6317 18.3371 22.5327 18.4588 22.4378 18.5966L27.3784 22.001Z" fill="#C8E8F6" mask="url(#path-3-outside-1)"/>
</svg>
